<svg width="4" height="16" viewBox="0 0 4 16" fill="none" xmlns="http://www.w3.org/2000/svg">
<path d="M1.83333 8.5C2.29357 8.5 2.66667 8.1269 2.66667 7.66667C2.66667 7.20643 2.29357 6.83333 1.83333 6.83333C1.3731 6.83333 1 7.20643 1 7.66667C1 8.1269 1.3731 8.5 1.83333 8.5Z" stroke="#474F59" stroke-width="2" stroke-linecap="round" stroke-linejoin="round"/>
<path d="M1.83333 2.66667C2.29357 2.66667 2.66667 2.29357 2.66667 1.83333C2.66667 1.3731 2.29357 1 1.83333 1C1.3731 1 1 1.3731 1 1.83333C1 2.29357 1.3731 2.66667 1.83333 2.66667Z" stroke="#474F59" stroke-width="2" stroke-linecap="round" stroke-linejoin="round"/>
<path d="M1.83333 14.3333C2.29357 14.3333 2.66667 13.9602 2.66667 13.5C2.66667 13.0398 2.29357 12.6667 1.83333 12.6667C1.3731 12.6667 1 13.0398 1 13.5C1 13.9602 1.3731 14.3333 1.83333 14.3333Z" stroke="#474F59" stroke-width="2" stroke-linecap="round" stroke-linejoin="round"/>
</svg>
